# xmcd
#
# Track frame offsets:
# 150
# 3310
# 23132
# 44830
# 60015
# 69310
# 82272
# 99152
# 115767
# 130520
# 145957
# 154362
# 175575
# 191805
# 204340
# 218250
# 226430
# 238417
# 254157
# 268050
# 280802
# 294112
# 302207
#
# Disc length: 4173 seconds
#
#
# Revision: 1
# Processed by: cddbd v1.5.1PL2 Copyright (c) Steve Scherf et al.
# Submitted via: FreeRIP 2.944 
#
DISCID=47104b17
DTITLE=Zé da Roça - O Caipira de Cristo
DYEAR=1900
DGENRE=Gospel
TTITLE0=Abertura
TTITLE1=Melô do Strip-Tease
TTITLE2=A Variant Supersônica
TTITLE3=Reggae do Sertão
TTITLE4=O Crente Macaco
TTITLE5=Receita de Sucesso
TTITLE6=Oito Tios de Crentes
TTITLE7=A Barganha
TTITLE8=Saudade do Sertão
TTITLE9=Que Trem Bão é Ter Jesus
TTITLE10=Velhos Tempos
TTITLE11=Festa De Crante
TTITLE12=Melô do Strip-Tease - Play-back
TTITLE13=A Varaint Supersonica - Play-back
TTITLE14=Reggae Do Sertão - Play-back
TTITLE15=O Crente Macaco - Play-back
TTITLE16=Receita de Sucesso - Play-back
TTITLE17=Oito Tipos de Crentes - Play-back
TTITLE18=A Barganha - Play-back
TTITLE19=Saudade Do Sertão - Play-back
TTITLE20=Que Trem Bão É Ter Jesus - Play-back
TTITLE21=Velhos Tempos - Play-back
TTITLE22=Festa De Crente - Play-back
EXTD=
EXTT0=
EXTT1=
EXTT2=
EXTT3=
EXTT4=
EXTT5=
EXTT6=
EXTT7=
EXTT8=
EXTT9=
EXTT10=
EXTT11=
EXTT12=
EXTT13=
EXTT14=
EXTT15=
EXTT16=
EXTT17=
EXTT18=
EXTT19=
EXTT20=
EXTT21=
EXTT22=
PLAYORDER=
